<?xml version="1.0" encoding="UTF-8"?>
<svg id="Layer_2" xmlns="http://www.w3.org/2000/svg" xmlns:xlink="http://www.w3.org/1999/xlink" viewBox="0 0 1977.67 2545.53">
  <defs>
    <style>
      .cls-1 {
        fill: none;
      }

      .cls-2 {
        fill: #ffdede;
      }

      .cls-3 {
        fill: #faeff2;
      }

      .cls-4 {
        fill: #ff8a8a;
      }

      .cls-5 {
        fill: #b10045;
      }

      .cls-6 {
        fill: #a00746;
      }

      .cls-7 {
        fill: #fff;
      }

      .cls-8 {
        fill: #61002f;
      }

      .cls-9 {
        fill: #fffefc;
      }

      .cls-10 {
        fill: #5e0429;
      }

      .cls-11 {
        fill: #900639;
      }

      .cls-12 {
        fill: #f5c6d4;
      }

      .cls-13 {
        clip-path: url(#clippath);
      }
    </style>
    <clipPath id="clippath">
      <rect class="cls-1" x="265.74" y="1561.94" width="1711.93" height="670.91"/>
    </clipPath>
  </defs>
  <g id="Layer_1-2" data-name="Layer_1">
    <g>
      <rect class="cls-9" x="265.74" width="1711.93" height="2232.85"/>
      <rect class="cls-8" x="265.74" y="1561.94" width="1711.93" height="670.91"/>
      <g>
        <path class="cls-7" d="M1264.42,1306.42l-.36,170.85c-.07,39.66,30.61,72.6,70.19,75.29l34.41,2.33c3.84.29,7,3.23,7.47,7.04h-260.51c.54-3.81,3.59-6.72,7.44-6.97l34.49-2.19c39.59-2.55,70.41-35.38,70.48-75.01l.36-170.88c.04-11.28-6.36-21.66-16.52-26.76l-34.74-17.39c-91.92-46.02-139.77-149.47-115.35-249.3l53.99-220.74h263.35l53.09,220.96c24,99.9-24.28,203.14-116.35,248.83l-34.84,17.28c-10.17,4.99-16.6,15.34-16.6,26.65Z"/>
        <path class="cls-2" d="M1228.39,1275.67c.5.25,1.01.47,1.51.72.21.11.43.22.65.29,11.64,5.5,19.54,8.8,19.51,19.15l-.4,181.41c0,13.04,3.12,38.15,11.03,47.38,0,0-37.93,7.47-33.16,13.33,3.81,4.63,51.26,6,55.82,9.66,9.74,7.76,21.05,12.97,33.37,14.33h-201.09c.54-3.81,3.59-6.72,7.44-6.97l34.49-2.19c39.59-2.55,70.41-35.38,70.48-75.01l.36-170.88c.04-11.28-6.36-21.66-16.52-26.76l-34.74-17.39c-91.92-46.02-139.77-149.47-115.35-249.3l53.99-220.74h188.41l41.02,179.75,9.38,41.02c24,99.94,38.98,192.79-53.09,238.42l-34.84,17.28c-7.08,3.48-45.15,3.23-38.26,6.5Z"/>
        <path class="cls-11" d="M1309.31,1253.96l-44.76,21.82c-11.43,5.57-24.78,5.54-36.19-.07l-44.67-22c-9.29-4.59-18.09-9.75-26.45-15.52-71.25-48.98-106.28-137.74-85.3-223.74l10.41-42.53,329.44.67,10.24,42.57c23.06,96.17-23.81,195.45-112.72,238.8Z"/>
        <path class="cls-10" d="M1223.35,1253.78c-19.84,9.68-58.45-10.58-66.1-15.6-15.22-10.49-55.33-41.08-77.24-97.99-15.04-39.06-18.55-82.75-8.06-125.75l10.41-42.53,243.48.49,10.24,42.57c23.06,96.17-23.81,195.45-112.72,238.8Z"/>
      </g>
      <g>
        <path class="cls-7" d="M986.91,782.12v749.79c0,16.58-13.44,30.02-30.02,30.02h-261.43c-18.54,0-33.57-15.03-33.57-33.57v-746.25c0-37.11,12.08-73.19,34.4-102.79l47.09-62.52c12.69-16.88,19.58-37.45,19.58-58.6v-55.28h122.91v55.28c0,21.14,6.86,41.72,19.58,58.6l47.09,62.52c22.33,29.6,34.36,65.68,34.36,102.79Z"/>
        <path class="cls-10" d="M940.01,782.12v749.79c0,16.58-13.44,30.02-30.02,30.02h-218.04c-16.6,0-30.06-13.46-30.06-30.06v-749.75c0-37.11,12.08-73.19,34.4-102.79l47.09-62.52c12.69-16.88,19.58-37.45,19.58-58.6v-52.42h84.64v52.42c0,21.14-1.78,41.72,10.95,58.6l47.05,62.52c22.33,29.6,34.4,65.68,34.4,102.79Z"/>
        <path class="cls-5" d="M885.87,244.54v261.25h-122.91V244.54c0-9.87,7.96-17.83,17.83-17.83h87.25c9.83,0,17.83,7.96,17.83,17.83Z"/>
        <rect class="cls-11" x="661.89" y="875.9" width="278.12" height="426.48"/>
        <rect class="cls-4" x="940.01" y="875.9" width="46.9" height="426.48" transform="translate(1926.92 2178.29) rotate(180)"/>
        <path class="cls-12" d="M885.87,244.54v261.25h-48.64V226.71h30.81c9.83,0,17.83,7.96,17.83,17.83Z"/>
        <path class="cls-12" d="M892.59,263.07v59.2c0,2.73-2.23,4.96-4.99,4.96h-126.41c-2.73,0-4.96-2.23-4.96-4.96v-59.2c0-2.77,2.23-4.99,4.96-4.99h126.41c2.77,0,4.99,2.23,4.99,4.99Z"/>
      </g>
      <path class="cls-6" d="M843.23,258.08v69.15h-82.05c-2.73,0-4.96-2.23-4.96-4.96v-59.2c0-2.77,2.23-4.99,4.96-4.99h82.05Z"/>
      <g class="cls-13">
        <path class="cls-3" d="M1047.85,1769.8l-44.82,12.73c-118.45,33.66-226.33,109.71-260.02,183.3l-74.48,162.77h263.34l181.44-162.61c82.06-73.54,93.94-149.75,28.59-183.65l-24.7-12.81c-7.22-3.76-7.62-11.41-1.07-19.71l99.02-125.88c22.95-29.19,72.73-53.37,113.78-55.25l35.75-1.61c3.99-.19,8.72-2.33,11.46-5.13h-260.51c-1.73,2.8-.27,4.97,3.41,5.19l33.06,1.72c38.03,1.98,49.69,26.25,26.72,55.46l-99,125.85c-6.53,8.34-18.94,15.96-31.99,19.63Z"/>
        <path class="cls-3" d="M187.12,2212.11l10.99,46.06c2.98,12.43-2.04,27.59-14.25,43.16l-30.26,38.61h0l-103.1,131.54h-1.72c-2.77,0-6.28,1.64-7.86,3.65l-34.18,43.61c-1.6,2.04-.66,3.68,2.11,3.68h1.72l-7.81,9.97c-5.7,7.27-2.29,13.13,7.54,13.13h87.25c9.87,0,22.43-5.87,28.12-13.13l7.81-9.97h1.78c2.73,0,6.24-1.64,7.84-3.68l34.18-43.61c1.58-2.01.63-3.65-2.1-3.65h-1.78l101.44-129.43h0l1.65-2.1,30.27-38.62c12.21-15.58,30.98-30.73,53.41-43.16l83.19-46.06c39.42-21.81,72.32-48.38,93.75-75.72l54.15-69.09,246.23-314.17,130.47-166.47,2.02-2.58c9.59-12.23,3.9-22.15-12.71-22.15h-264.93c-16.58,0-37.79,9.9-47.36,22.12l-132.52,169.08-246.23,314.17-54.15,69.09c-21.42,27.34-30.22,53.91-24.98,75.72Z"/>
      </g>
    </g>
  </g>
</svg>