<?xml version="1.0" encoding="UTF-8"?>
<svg id="Layer_2" xmlns="http://www.w3.org/2000/svg" viewBox="0 0 1711.94 2232.85">
  <defs>
    <style>
      .cls-1 {
        fill: #ffdede;
      }

      .cls-2 {
        fill: #b10045;
      }

      .cls-3 {
        fill: #3f0404;
      }

      .cls-4 {
        fill: #190303;
      }

      .cls-5 {
        fill: #fff;
      }

      .cls-6 {
        fill: #61002f;
      }

      .cls-7 {
        fill: #fffefc;
      }

      .cls-8 {
        fill: #900639;
      }

      .cls-9 {
        fill: #f5c6d4;
      }
    </style>
  </defs>
  <g id="Layer_1-2" data-name="Layer_1">
    <g>
      <rect class="cls-6" width="1711.94" height="2232.85"/>
      <rect class="cls-7" x="0" y="930.27" width="1711.94" height="1302.57"/>
      <path class="cls-4" d="M1711.94,988.22v117.39h-395c-32.44,0-63.98-4.35-89.88-12.43l-54.67-16.99c-14.76-4.6-32.76-7.08-51.26-7.08h-245.17c-.86,1.9-2.77,3.27-4.99,3.27h-29.96c-2.23,0-4.13-1.37-4.99-3.27h-14.58c-4.38,0-7.98-3.56-7.98-7.97v-4.35h-27.66v-19.72h27.66v-4.38c0-4.42,3.59-7.97,7.98-7.97h14.58c.86-1.9,2.77-3.23,4.99-3.23h29.96c2.23,0,4.13,1.33,4.96,3.23h245.2c18.5,0,36.5-2.48,51.26-7.08l30.17-9.38,24.5-7.62c25.9-8.08,57.44-12.43,89.88-12.43h395Z"/>
      <g>
        <path class="cls-1" d="M1711.94,777.07v306.45h-355.63c-34.99,0-69.01-11.39-96.92-32.44l-56.83-42.82-2.12-1.58c-15.91-11.96-35.31-18.46-55.25-18.46h-319.13c-.83,0-1.65-.07-2.44-.25-.43-.07-.83-.18-1.22-.32-.04.04-.07,0-.07,0-.79-.25-1.51-.57-2.23-.93-1.08-.57-2.05-1.29-2.91-2.19-1.33-1.33-2.37-2.98-3.02-4.81-.07,0-.07-.04-.04-.07-.04-.11-.07-.22-.11-.32-.11-.43-.22-.83-.32-1.22-.18-.79-.25-1.62-.25-2.44v-90.63c0-7,5.71-12.68,12.72-12.68h319.02c19.94,0,39.33-6.47,55.25-18.46l58.95-44.4c27.91-21.05,61.93-32.4,96.92-32.4h355.63Z"/>
        <path class="cls-8" d="M1232.94,2232.84H177.55c-69.31-101.23-31.48-246.67,123.87-314.4,141.45-61.67,512.01-137.33,512.03-254.77.02-116.39-492.8-108.56-179.63-382.58,98.6-86.28-215.63-107.17-127.55-175.47,42.08-32.63,141.34-26.3,261.79-58.92,35.23-9.54,27.04-81.7,45.41-86.61v11.09s11.26,92.12-40.52,103.9c-90.31,20.54-90.77,20.66-156.09,37.03-114.5,28.69,145.49,76.01,196.61,91.99,152.31,47.62-57.33,119.68-35.14,201.28,35.14,129.18,335.67,134.24,347.48,267.18,1.96,21.96-3.97,51.53-42.46,83.5-50.81,42.2-149.41,71.12-176.81,121.36-54.31,99.55,317.84,167.25,326.4,355.42Z"/>
        <path class="cls-2" d="M1711.94,821.29v262.23h-355.63c-34.99,0-69.01-11.39-96.92-32.44l-56.83-42.82-2.12-1.58c-15.91-11.96-35.31-18.46-55.25-18.46h-319.13c-.83,0-1.65-.07-2.44-.25-.43-.07-.83-.18-1.22-.32-.04.04-.07,0-.07,0-.79-.25-1.51-.57-2.23-.93-1.08-.57-2.05-1.29-2.91-2.19-1.36-1.29-2.44-2.95-3.02-4.81-.07,0-.07-.04-.04-.07-.04-.11-.07-.22-.11-.32-.11-.43-.22-.83-.32-1.22-.18-.79-.25-1.62-.25-2.44v-59.06h331.74c12.36,0,33.66-2.73,43.5-14.91,7.69-9.48,10.89-21.77,11.42-29.67,0,0,4.67,12,7.65,20.55l51.62-38.83c27.91-21.05,61.93-32.44,96.92-32.44h355.63Z"/>
        <rect class="cls-9" x="1441.52" y="821.29" width="270.42" height="262.23"/>
        <rect class="cls-5" x="1441.52" y="777.07" width="270.42" height="44.22"/>
        <path class="cls-3" d="M831.35,931.5h49.26v54.44c0,4.61-3.75,8.36-8.36,8.36h-32.54c-4.61,0-8.36-3.75-8.36-8.36v-54.44h0Z"/>
        <path class="cls-1" d="M839.71,866.26h32.54c4.61,0,8.36,3.75,8.36,8.36v56.88h-49.26v-56.88c0-4.61,3.75-8.36,8.36-8.36Z"/>
      </g>
    </g>
  </g>
</svg>