<?xml version="1.0" encoding="UTF-8"?>
<svg id="Layer_2" xmlns="http://www.w3.org/2000/svg" viewBox="0 0 1711.95 2232.85">
  <defs>
    <style>
      .cls-1 {
        fill: #ffdede;
      }

      .cls-2 {
        fill: #faeff2;
      }

      .cls-3 {
        fill: #ffdde6;
      }

      .cls-4 {
        fill: #1c1c1c;
      }

      .cls-5 {
        fill: #b10045;
      }

      .cls-6 {
        fill: #2b0112;
      }

      .cls-7 {
        fill: #fff;
      }

      .cls-8 {
        fill: #61002f;
      }
    </style>
  </defs>
  <g id="Layer_1-2" data-name="Layer_1">
    <g>
      <rect class="cls-8" width="1711.94" height="2232.85"/>
      <g>
        <path class="cls-4" d="M1173.27,1515.95l-220.96,123.54-171.67-309.11c-4.27-7.72-1.54-16.67,4.81-21.19v-.04c2.62-1.83,5.82-2.95,9.41-2.95,7.98,0,15.77,1.83,22.77,5.21,7,3.38,13.29,8.3,18.25,14.55l157.63,198.15,57.37,12.57,122.39-20.73Z"/>
        <path class="cls-2" d="M965.21,1594.19l-75.08,3.88-35.1,1.8-182.56-270.28c-1.8-2.66-2.62-5.53-2.62-8.37,0-3.27,1.11-6.47,3.05-9.05,2.66-3.56,6.9-5.96,12-5.96,17.17,0,33.52,7.36,44.87,20.26l178.78,203.32,52.66,59.88,3.99,4.53Z"/>
        <path class="cls-4" d="M963.66,1589.38l-2.44.29-71.09,8.41-35.1,1.8-182.56-270.28c-1.8-2.66-2.62-5.53-2.62-8.37,0-3.27,1.11-6.47,3.05-9.05,2.55-2.08,5.82-3.38,9.55-3.38,17.17,0,30.77,10.99,41.53,21.34l184.57,199.66,55.1,59.59Z"/>
        <path class="cls-2" d="M902.42,1592.72l-97.49,37.22-229.4-305.01c-1.62-2.16-2.37-4.6-2.37-6.97,0-.86.11-1.76.32-2.59,1.11-4.99,5.5-9.16,11.42-9.16,19.51,0,38.22,7.72,52.02,21.52l157.7,157.41,107.8,107.59Z"/>
        <path class="cls-4" d="M902.42,1592.72l-97.49,37.22-229.4-305.01c-1.62-2.16-2.37-4.6-2.37-6.97,0-.86.11-1.76.32-2.59,2.08-2.62,5.24-4.38,9.12-4.38,19.51,0,38.22,7.76,52.02,21.52l160,152.63,107.8,107.59Z"/>
        <path class="cls-4" d="M1414.97,1768.29l21.1,393.36-256.46-217.45-329.25-210.55c-12.72-8.14-23.87-18.51-32.89-30.62l-95.76-128.58-202.79-239.99c-2.48-3.27-3.59-6.97-3.59-10.56,0-4.56,1.8-8.98,4.92-12.29,3.12-3.27,7.51-5.42,12.75-5.42,24.18,0,47.6,8.3,66.35,23.49l238.27,193.05c53.31,46.88,206.34,61.97,239.42-3.84l.21-.43c.5-1.04,1.01-2.08,1.44-3.2,4.02-9.52,5.6-20.62,4.24-33.44l-4.85-142.72c0-.36-.04-.75-.04-1.11,0-10.49,5.14-19.83,13.04-25.61.25-.18.5-.36.79-.5l.04-.04c5.03-3.45,11.14-5.5,17.71-5.53,12.82-.07,24.43,7.54,29.42,19.36l82.12,194.05,13.11,17.75c20.04,27.09,38.36,55.43,54.82,84.78,16.49,29.35,31.14,59.7,43.86,90.95l14.94,10.6,67.08,44.49Z"/>
        <path class="cls-2" d="M1212.01,1524.06c-37.22-98.71-71.22-174.86-78.29-194.43-6.57-18.18-24.96-25.93-42.64-17.25.31-.15.57-.29.79-.5l.04-.04c5.03-3.45,11.14-5.5,17.71-5.53,12.82-.07,24.43,7.54,29.42,19.36l82.12,194.05,13.11,17.75c20.04,27.09,38.36,55.43,54.82,84.78,16.49,29.35,31.14,59.7,43.86,90.95l25.86,18.34h0c-16-5.54-33.68-3.14-47.63,6.45,0,0,36.71-14.19-99.17-213.93Z"/>
        <polygon class="cls-7" points="1414.97 1768.29 1407.95 1815.41 1489.53 1867.41 1496.25 1822.2 1414.97 1768.29"/>
        <polygon class="cls-3" points="1407.95 1815.41 1358.81 2145.35 1436.06 2220.55 1489.53 1867.41 1407.95 1815.41"/>
        <polygon class="cls-2" points="1496.25 1822.2 1487.81 1878.78 1711.95 2028.8 1711.95 1965.27 1496.25 1822.2"/>
        <polygon class="cls-4" points="1711.94 2028.81 1711.94 2232.85 1448.67 2232.85 1436.06 2220.56 1487.82 1878.76 1711.94 2028.81"/>
        <path class="cls-2" d="M993.51,1524.11c-58.14-59.91-95.17-112.59-159.27-193.33-6.97-8.78-19.29-17.36-31.19-20.92-6.22-1.86-11.64-3.13-17.6-.67v-.04c2.62-1.83,5.82-2.95,9.41-2.95,7.98,0,15.77,1.83,22.77,5.21,7,3.38,13.29,8.3,18.25,14.55l157.63,198.15Z"/>
        <path class="cls-2" d="M921.84,1552.44l17.91-9.5c16.87-8.95,35-15.3,53.77-18.84h0s24.34,5.33,24.34,5.33l-5.64.47c-31.14,2.61-61.66,10.21-90.38,22.53h0Z"/>
        <path class="cls-2" d="M1077.03,1518.9l-34.33,67.31s-76.7,7.79-107-5.87c-41.59-18.76-89.07-44.98-96.69-50.89-64.18-49.76-187.08-149.56-236.71-187.9-22.31-17.24-54.04-29.22-64.02-31.19-11.83-2.34-18.05,1.28-18.05,1.28,3.12-3.27,7.51-5.42,12.75-5.42,24.18,0,47.6,8.3,66.35,23.49l238.27,193.05c53.31,46.88,206.34,61.97,239.42-3.84Z"/>
      </g>
      <g>
        <path class="cls-7" d="M1442.94,1279.6c-8.83,5.13-18.24,9.06-28.03,11.68-9.79,2.66-19.89,4.01-30.11,4.01H327.17c-20.43,0-40.52-5.44-58.14-15.69h1173.91Z"/>
        <path class="cls-1" d="M1338.61,1279.6c-8.83,5.13-18.27,9.06-28.03,11.68-9.79,2.66-19.89,4.01-30.11,4.01H327.17c-20.43,0-40.52-5.44-58.14-15.69h1069.58Z"/>
        <path class="cls-7" d="M1378.05,1295.29c0,4.32-1.77,8.25-4.59,11.1-2.85,2.85-6.75,4.59-11.1,4.59H349.57c-8.67,0-15.69-7.02-15.69-15.69h1044.18Z"/>
        <path class="cls-1" d="M1266.13,1295.29c0,4.32-1.77,8.25-4.59,11.1-2.85,2.85-6.79,4.59-11.1,4.59H349.57c-8.67,0-15.69-7.02-15.69-15.69h932.26Z"/>
      </g>
      <g>
        <path class="cls-7" d="M875.86,989.69l-.41,193.83c-.08,44.99,34.72,82.36,79.63,85.42l39.04,2.65c4.36.33,7.95,3.67,8.48,7.99h-295.55c.61-4.32,4.08-7.62,8.44-7.91l39.12-2.49c44.91-2.89,79.88-40.14,79.96-85.09l.41-193.87c.04-12.8-7.21-24.57-18.75-30.36l-39.41-19.72c-104.29-52.21-158.57-169.58-130.86-282.83l61.25-250.44h298.77l60.23,250.68c27.22,113.34-27.55,230.47-132,282.31l-39.53,19.6c-11.53,5.66-18.83,17.4-18.83,30.24Z"/>
        <path class="cls-3" d="M834.98,954.81c.57.29,1.14.53,1.71.82.24.12.49.24.73.33,13.2,6.24,22.17,9.98,22.13,21.72l-.45,205.81c0,14.79,3.55,43.28,12.51,53.75,0,0-43.04,8.48-37.62,15.12,4.32,5.26,58.16,6.81,63.33,10.96,11.05,8.8,23.88,14.71,37.86,16.26h-228.14c.61-4.32,4.08-7.62,8.44-7.91l39.12-2.49c44.91-2.89,79.88-40.14,79.96-85.09l.41-193.87c.04-12.8-7.21-24.57-18.75-30.36l-39.41-19.72c-104.29-52.21-158.57-169.58-130.86-282.83l61.25-250.44h213.76l46.54,203.93,10.64,46.54c27.22,113.38,44.22,218.73-60.23,270.49l-39.53,19.6c-8.03,3.95-51.23,3.67-43.4,7.38Z"/>
        <path class="cls-6" d="M926.78,930.17l-50.78,24.75c-12.97,6.31-28.11,6.28-41.06-.08l-50.68-24.96c-10.54-5.21-20.53-11.06-30-17.6-80.84-55.57-120.58-156.27-96.78-253.84l11.81-48.25,373.75.76,11.61,48.3c26.16,109.1-27.02,221.74-127.88,270.93Z"/>
        <path class="cls-5" d="M829.25,929.97c-22.51,10.98-66.31-12-74.99-17.69-17.27-11.9-62.77-46.61-87.63-111.17-17.06-44.32-21.05-93.89-9.15-142.67l11.81-48.25,276.23.56,11.61,48.3c26.16,109.1-27.02,221.74-127.88,270.93Z"/>
      </g>
    </g>
  </g>
</svg>